<mxfile host="65bd71144e">
    <diagram id="ueg6NqKU8GOXhDqJm9ao" name="Page-1">
        <mxGraphModel dx="1273" dy="610" grid="1" gridSize="10" guides="1" tooltips="1" connect="1" arrows="1" fold="1" page="1" pageScale="1" pageWidth="600" pageHeight="600" background="#ffffff" math="0" shadow="0">
            <root>
                <mxCell id="0"/>
                <mxCell id="1" parent="0"/>
                <mxCell id="5" value="" style="group" parent="1" vertex="1" connectable="0">
                    <mxGeometry x="20" y="263" width="80" height="80" as="geometry"/>
                </mxCell>
                <mxCell id="3" value="1" style="ellipse;whiteSpace=wrap;html=1;aspect=fixed;fontSize=20;" parent="5" vertex="1">
                    <mxGeometry width="80" height="80" as="geometry"/>
                </mxCell>
                <mxCell id="35" style="edgeStyle=none;html=1;exitX=1;exitY=0.5;exitDx=0;exitDy=0;fontSize=16;entryX=0;entryY=0.5;entryDx=0;entryDy=0;" parent="1" source="3" target="46" edge="1">
                    <mxGeometry relative="1" as="geometry">
                        <mxPoint x="167.99999999999994" y="269.64000000000004" as="sourcePoint"/>
                        <mxPoint x="289.92000000000013" y="173.00000000000006" as="targetPoint"/>
                    </mxGeometry>
                </mxCell>
                <mxCell id="36" value="&lt;font&gt;a&lt;/font&gt;" style="edgeLabel;html=1;align=center;verticalAlign=middle;resizable=0;points=[];fontSize=20;" parent="35" vertex="1" connectable="0">
                    <mxGeometry x="0.0351" relative="1" as="geometry">
                        <mxPoint x="-1" as="offset"/>
                    </mxGeometry>
                </mxCell>
                <mxCell id="45" value="" style="group" parent="1" vertex="1" connectable="0">
                    <mxGeometry x="180" y="263" width="80" height="80" as="geometry"/>
                </mxCell>
                <mxCell id="46" value="2" style="ellipse;whiteSpace=wrap;html=1;aspect=fixed;fontSize=20;" parent="45" vertex="1">
                    <mxGeometry width="80" height="80" as="geometry"/>
                </mxCell>
                <mxCell id="142" value="" style="group" parent="1" vertex="1" connectable="0">
                    <mxGeometry x="370" y="263" width="80" height="80" as="geometry"/>
                </mxCell>
                <mxCell id="143" value="3" style="ellipse;whiteSpace=wrap;html=1;aspect=fixed;fontSize=20;" parent="142" vertex="1">
                    <mxGeometry width="80" height="80" as="geometry"/>
                </mxCell>
                <mxCell id="206" value="" style="curved=1;endArrow=classic;html=1;" edge="1" parent="142" source="143" target="143">
                    <mxGeometry width="50" height="50" relative="1" as="geometry">
                        <mxPoint y="-33" as="sourcePoint"/>
                        <mxPoint x="50" y="-83" as="targetPoint"/>
                        <Array as="points">
                            <mxPoint x="70" y="-63"/>
                            <mxPoint y="-63"/>
                        </Array>
                    </mxGeometry>
                </mxCell>
                <mxCell id="207" value="a" style="edgeLabel;html=1;align=center;verticalAlign=middle;resizable=0;points=[];fontSize=20;" vertex="1" connectable="0" parent="206">
                    <mxGeometry x="0.0376" y="-1" relative="1" as="geometry">
                        <mxPoint x="6" y="-1" as="offset"/>
                    </mxGeometry>
                </mxCell>
                <mxCell id="144" style="edgeStyle=none;html=1;fontSize=16;" parent="1" source="46" target="143" edge="1">
                    <mxGeometry relative="1" as="geometry">
                        <mxPoint x="110" y="313" as="sourcePoint"/>
                        <mxPoint x="190" y="313" as="targetPoint"/>
                    </mxGeometry>
                </mxCell>
                <mxCell id="145" value="&lt;font&gt;a&lt;/font&gt;" style="edgeLabel;html=1;align=center;verticalAlign=middle;resizable=0;points=[];fontSize=20;" parent="144" vertex="1" connectable="0">
                    <mxGeometry x="0.0351" relative="1" as="geometry">
                        <mxPoint x="-1" as="offset"/>
                    </mxGeometry>
                </mxCell>
                <mxCell id="146" value="" style="group" parent="1" vertex="1" connectable="0">
                    <mxGeometry x="370" y="420" width="80" height="80" as="geometry"/>
                </mxCell>
                <mxCell id="147" value="4" style="ellipse;whiteSpace=wrap;html=1;aspect=fixed;fontSize=20;" parent="146" vertex="1">
                    <mxGeometry width="80" height="80" as="geometry"/>
                </mxCell>
                <mxCell id="148" style="edgeStyle=none;html=1;fontSize=16;" parent="1" source="46" target="147" edge="1">
                    <mxGeometry relative="1" as="geometry">
                        <mxPoint x="230" y="273" as="sourcePoint"/>
                        <mxPoint x="230" y="160" as="targetPoint"/>
                    </mxGeometry>
                </mxCell>
                <mxCell id="149" value="&lt;font&gt;b&lt;/font&gt;" style="edgeLabel;html=1;align=center;verticalAlign=middle;resizable=0;points=[];fontSize=20;" parent="148" vertex="1" connectable="0">
                    <mxGeometry x="0.0351" relative="1" as="geometry">
                        <mxPoint x="-1" as="offset"/>
                    </mxGeometry>
                </mxCell>
                <mxCell id="208" value="" style="curved=1;endArrow=classic;html=1;" edge="1" parent="1" source="143" target="147">
                    <mxGeometry width="50" height="50" relative="1" as="geometry">
                        <mxPoint x="470" y="420" as="sourcePoint"/>
                        <mxPoint x="516" y="401" as="targetPoint"/>
                        <Array as="points">
                            <mxPoint x="360" y="380"/>
                        </Array>
                    </mxGeometry>
                </mxCell>
                <mxCell id="209" value="b" style="edgeLabel;html=1;align=center;verticalAlign=middle;resizable=0;points=[];fontSize=20;" vertex="1" connectable="0" parent="208">
                    <mxGeometry x="0.0376" y="-1" relative="1" as="geometry">
                        <mxPoint x="13" y="-5" as="offset"/>
                    </mxGeometry>
                </mxCell>
                <mxCell id="210" value="" style="curved=1;endArrow=classic;html=1;" edge="1" parent="1" source="147" target="143">
                    <mxGeometry width="50" height="50" relative="1" as="geometry">
                        <mxPoint x="398" y="347" as="sourcePoint"/>
                        <mxPoint x="470" y="420" as="targetPoint"/>
                        <Array as="points">
                            <mxPoint x="450" y="380"/>
                        </Array>
                    </mxGeometry>
                </mxCell>
                <mxCell id="211" value="a" style="edgeLabel;html=1;align=center;verticalAlign=middle;resizable=0;points=[];fontSize=20;" vertex="1" connectable="0" parent="210">
                    <mxGeometry x="0.0376" y="-1" relative="1" as="geometry">
                        <mxPoint x="-11" y="1" as="offset"/>
                    </mxGeometry>
                </mxCell>
                <mxCell id="216" value="" style="group" vertex="1" connectable="0" parent="1">
                    <mxGeometry x="550" y="263" width="80" height="80" as="geometry"/>
                </mxCell>
                <mxCell id="217" value="5" style="ellipse;whiteSpace=wrap;html=1;aspect=fixed;fontSize=20;" vertex="1" parent="216">
                    <mxGeometry width="80" height="80" as="geometry"/>
                </mxCell>
                <mxCell id="218" style="edgeStyle=none;html=1;fontSize=16;" edge="1" parent="1" source="147" target="217">
                    <mxGeometry relative="1" as="geometry">
                        <mxPoint x="330" y="480" as="sourcePoint"/>
                        <mxPoint x="389" y="445" as="targetPoint"/>
                    </mxGeometry>
                </mxCell>
                <mxCell id="219" value="&lt;font&gt;b&lt;/font&gt;" style="edgeLabel;html=1;align=center;verticalAlign=middle;resizable=0;points=[];fontSize=20;" vertex="1" connectable="0" parent="218">
                    <mxGeometry x="0.0351" relative="1" as="geometry">
                        <mxPoint x="-1" as="offset"/>
                    </mxGeometry>
                </mxCell>
                <mxCell id="220" value="" style="group" vertex="1" connectable="0" parent="1">
                    <mxGeometry x="550" y="420" width="80" height="80" as="geometry"/>
                </mxCell>
                <mxCell id="221" value="6" style="ellipse;whiteSpace=wrap;html=1;aspect=fixed;fontSize=20;" vertex="1" parent="220">
                    <mxGeometry width="80" height="80" as="geometry"/>
                </mxCell>
                <mxCell id="237" value="" style="curved=1;endArrow=classic;html=1;" edge="1" parent="220" source="221" target="221">
                    <mxGeometry width="50" height="50" relative="1" as="geometry">
                        <mxPoint x="61" y="165" as="sourcePoint"/>
                        <mxPoint x="35" y="166" as="targetPoint"/>
                        <Array as="points">
                            <mxPoint x="70" y="150"/>
                            <mxPoint x="10" y="140"/>
                        </Array>
                    </mxGeometry>
                </mxCell>
                <mxCell id="238" value="c" style="edgeLabel;html=1;align=center;verticalAlign=middle;resizable=0;points=[];fontSize=20;" vertex="1" connectable="0" parent="237">
                    <mxGeometry x="0.0376" y="-1" relative="1" as="geometry">
                        <mxPoint x="1" y="-1" as="offset"/>
                    </mxGeometry>
                </mxCell>
                <mxCell id="243" value="" style="ellipse;whiteSpace=wrap;html=1;aspect=fixed;fillColor=none;" vertex="1" parent="220">
                    <mxGeometry x="5" y="5" width="70" height="70" as="geometry"/>
                </mxCell>
                <mxCell id="222" style="edgeStyle=none;html=1;fontSize=16;" edge="1" parent="1" source="147" target="221">
                    <mxGeometry relative="1" as="geometry">
                        <mxPoint x="440" y="410" as="sourcePoint"/>
                        <mxPoint x="540" y="410" as="targetPoint"/>
                    </mxGeometry>
                </mxCell>
                <mxCell id="223" value="&lt;font&gt;c&lt;/font&gt;" style="edgeLabel;html=1;align=center;verticalAlign=middle;resizable=0;points=[];fontSize=20;" vertex="1" connectable="0" parent="222">
                    <mxGeometry x="0.0351" relative="1" as="geometry">
                        <mxPoint x="-1" as="offset"/>
                    </mxGeometry>
                </mxCell>
                <mxCell id="224" style="edgeStyle=none;html=1;fontSize=16;" edge="1" parent="1" source="217" target="143">
                    <mxGeometry relative="1" as="geometry">
                        <mxPoint x="270" y="313" as="sourcePoint"/>
                        <mxPoint x="380" y="313" as="targetPoint"/>
                    </mxGeometry>
                </mxCell>
                <mxCell id="225" value="&lt;font&gt;a&lt;/font&gt;" style="edgeLabel;html=1;align=center;verticalAlign=middle;resizable=0;points=[];fontSize=20;" vertex="1" connectable="0" parent="224">
                    <mxGeometry x="0.0351" relative="1" as="geometry">
                        <mxPoint x="-1" as="offset"/>
                    </mxGeometry>
                </mxCell>
                <mxCell id="226" value="" style="curved=1;endArrow=classic;html=1;" edge="1" parent="1" source="217" target="217">
                    <mxGeometry width="50" height="50" relative="1" as="geometry">
                        <mxPoint x="573" y="274" as="sourcePoint"/>
                        <mxPoint x="556" y="281" as="targetPoint"/>
                        <Array as="points">
                            <mxPoint x="560" y="200"/>
                            <mxPoint x="510" y="220"/>
                        </Array>
                    </mxGeometry>
                </mxCell>
                <mxCell id="227" value="b" style="edgeLabel;html=1;align=center;verticalAlign=middle;resizable=0;points=[];fontSize=20;" vertex="1" connectable="0" parent="226">
                    <mxGeometry x="0.0376" y="-1" relative="1" as="geometry">
                        <mxPoint x="10" y="3" as="offset"/>
                    </mxGeometry>
                </mxCell>
                <mxCell id="229" style="edgeStyle=none;html=1;fontSize=16;" edge="1" parent="1" source="217" target="221">
                    <mxGeometry relative="1" as="geometry">
                        <mxPoint x="460" y="470" as="sourcePoint"/>
                        <mxPoint x="670" y="470" as="targetPoint"/>
                    </mxGeometry>
                </mxCell>
                <mxCell id="230" value="&lt;font&gt;c&lt;/font&gt;" style="edgeLabel;html=1;align=center;verticalAlign=middle;resizable=0;points=[];fontSize=20;" vertex="1" connectable="0" parent="229">
                    <mxGeometry x="0.0351" relative="1" as="geometry">
                        <mxPoint x="-1" as="offset"/>
                    </mxGeometry>
                </mxCell>
                <mxCell id="233" value="" style="group" vertex="1" connectable="0" parent="1">
                    <mxGeometry x="720" y="420" width="80" height="80" as="geometry"/>
                </mxCell>
                <mxCell id="234" value="7" style="ellipse;whiteSpace=wrap;html=1;aspect=fixed;fontSize=20;" vertex="1" parent="233">
                    <mxGeometry width="80" height="80" as="geometry"/>
                </mxCell>
                <mxCell id="239" value="" style="curved=1;endArrow=classic;html=1;" edge="1" parent="233" source="234" target="234">
                    <mxGeometry width="50" height="50" relative="1" as="geometry">
                        <mxPoint x="50" y="81" as="sourcePoint"/>
                        <mxPoint x="29" y="80" as="targetPoint"/>
                        <Array as="points">
                            <mxPoint x="70" y="152"/>
                            <mxPoint x="10" y="142"/>
                        </Array>
                    </mxGeometry>
                </mxCell>
                <mxCell id="240" value="b" style="edgeLabel;html=1;align=center;verticalAlign=middle;resizable=0;points=[];fontSize=20;" vertex="1" connectable="0" parent="239">
                    <mxGeometry x="0.0376" y="-1" relative="1" as="geometry">
                        <mxPoint x="1" y="-1" as="offset"/>
                    </mxGeometry>
                </mxCell>
                <mxCell id="235" style="edgeStyle=none;html=1;fontSize=16;" edge="1" parent="1" source="221" target="234">
                    <mxGeometry relative="1" as="geometry">
                        <mxPoint x="450" y="444" as="sourcePoint"/>
                        <mxPoint x="570" y="339" as="targetPoint"/>
                    </mxGeometry>
                </mxCell>
                <mxCell id="236" value="&lt;font&gt;b&lt;/font&gt;" style="edgeLabel;html=1;align=center;verticalAlign=middle;resizable=0;points=[];fontSize=20;" vertex="1" connectable="0" parent="235">
                    <mxGeometry x="0.0351" relative="1" as="geometry">
                        <mxPoint x="-1" as="offset"/>
                    </mxGeometry>
                </mxCell>
                <mxCell id="241" value="" style="curved=1;endArrow=classic;html=1;" edge="1" parent="1" source="234" target="221">
                    <mxGeometry width="50" height="50" relative="1" as="geometry">
                        <mxPoint x="700" y="349" as="sourcePoint"/>
                        <mxPoint x="679" y="348" as="targetPoint"/>
                        <Array as="points">
                            <mxPoint x="720" y="420"/>
                            <mxPoint x="660" y="410"/>
                        </Array>
                    </mxGeometry>
                </mxCell>
                <mxCell id="242" value="c" style="edgeLabel;html=1;align=center;verticalAlign=middle;resizable=0;points=[];fontSize=20;" vertex="1" connectable="0" parent="241">
                    <mxGeometry x="0.0376" y="-1" relative="1" as="geometry">
                        <mxPoint x="1" y="-1" as="offset"/>
                    </mxGeometry>
                </mxCell>
            </root>
        </mxGraphModel>
    </diagram>
</mxfile>